<mxfile host="65bd71144e" scale="1" border="10">
    <diagram id="PsLG1nvYOHh64BqABNhy" name="Page-1">
        <mxGraphModel dx="817" dy="686" grid="1" gridSize="10" guides="1" tooltips="1" connect="1" arrows="1" fold="1" page="1" pageScale="1" pageWidth="850" pageHeight="1100" background="#ffffff" math="0" shadow="0">
            <root>
                <mxCell id="0"/>
                <mxCell id="1" parent="0"/>
                <mxCell id="247" value="Parcheggio" style="swimlane;fontStyle=1;align=center;verticalAlign=top;childLayout=stackLayout;horizontal=1;startSize=26;horizontalStack=0;resizeParent=1;resizeParentMax=0;resizeLast=0;collapsible=1;marginBottom=0;fillColor=#fff2cc;strokeColor=#d6b656;" vertex="1" parent="1">
                    <mxGeometry x="40.16999999999996" y="40" width="140" height="78" as="geometry">
                        <mxRectangle x="330" y="220" width="150" height="30" as="alternateBounds"/>
                    </mxGeometry>
                </mxCell>
                <mxCell id="249" value="+ tariffa sosta: float" style="text;strokeColor=none;fillColor=none;align=left;verticalAlign=top;spacingLeft=4;spacingRight=4;overflow=hidden;rotatable=0;points=[[0,0.5],[1,0.5]];portConstraint=eastwest;" vertex="1" parent="247">
                    <mxGeometry y="26" width="140" height="26" as="geometry"/>
                </mxCell>
                <mxCell id="250" value="+ tariffa ricarica: float" style="text;strokeColor=none;fillColor=none;align=left;verticalAlign=top;spacingLeft=4;spacingRight=4;overflow=hidden;rotatable=0;points=[[0,0.5],[1,0.5]];portConstraint=eastwest;" vertex="1" parent="247">
                    <mxGeometry y="52" width="140" height="26" as="geometry"/>
                </mxCell>
                <mxCell id="251" value="Posto auto" style="swimlane;fontStyle=1;align=center;verticalAlign=top;childLayout=stackLayout;horizontal=1;startSize=26;horizontalStack=0;resizeParent=1;resizeParentMax=0;resizeLast=0;collapsible=1;marginBottom=0;fillColor=#fff2cc;strokeColor=#d6b656;" vertex="1" parent="1">
                    <mxGeometry x="55.25" y="162" width="109.83" height="78" as="geometry">
                        <mxRectangle x="330" y="220" width="150" height="30" as="alternateBounds"/>
                    </mxGeometry>
                </mxCell>
                <mxCell id="252" value="+ id: string" style="text;strokeColor=none;fillColor=none;align=left;verticalAlign=top;spacingLeft=4;spacingRight=4;overflow=hidden;rotatable=0;points=[[0,0.5],[1,0.5]];portConstraint=eastwest;" vertex="1" parent="251">
                    <mxGeometry y="26" width="109.83" height="26" as="geometry"/>
                </mxCell>
                <mxCell id="320" value="+ libero: boolean" style="text;strokeColor=none;fillColor=none;align=left;verticalAlign=top;spacingLeft=4;spacingRight=4;overflow=hidden;rotatable=0;points=[[0,0.5],[1,0.5]];portConstraint=eastwest;" vertex="1" parent="251">
                    <mxGeometry y="52" width="109.83" height="26" as="geometry"/>
                </mxCell>
                <mxCell id="253" value="" style="endArrow=diamondThin;endFill=1;endSize=24;html=1;dashed=1;" edge="1" parent="1" source="251" target="247">
                    <mxGeometry width="160" relative="1" as="geometry">
                        <mxPoint x="90.16999999999996" y="-322.4999999999999" as="sourcePoint"/>
                        <mxPoint x="90.16999999999996" y="-270" as="targetPoint"/>
                    </mxGeometry>
                </mxCell>
                <mxCell id="254" value="1..*" style="edgeLabel;html=1;align=center;verticalAlign=middle;resizable=0;points=[];" vertex="1" connectable="0" parent="253">
                    <mxGeometry x="0.3448" y="-2" relative="1" as="geometry">
                        <mxPoint x="9" y="20" as="offset"/>
                    </mxGeometry>
                </mxCell>
                <mxCell id="255" value="Utenti" style="swimlane;fontStyle=1;align=center;verticalAlign=top;childLayout=stackLayout;horizontal=1;startSize=26;horizontalStack=0;resizeParent=1;resizeParentMax=0;resizeLast=0;collapsible=1;marginBottom=0;fillColor=#d5e8d4;strokeColor=#82b366;" vertex="1" parent="1">
                    <mxGeometry x="260" y="120" width="120" height="78" as="geometry">
                        <mxRectangle x="160" y="240" width="150" height="30" as="alternateBounds"/>
                    </mxGeometry>
                </mxCell>
                <mxCell id="256" value="+ nome: string" style="text;strokeColor=none;fillColor=none;align=left;verticalAlign=top;spacingLeft=4;spacingRight=4;overflow=hidden;rotatable=0;points=[[0,0.5],[1,0.5]];portConstraint=eastwest;" vertex="1" parent="255">
                    <mxGeometry y="26" width="120" height="26" as="geometry"/>
                </mxCell>
                <mxCell id="257" value="+ cognome: string" style="text;strokeColor=none;fillColor=none;align=left;verticalAlign=top;spacingLeft=4;spacingRight=4;overflow=hidden;rotatable=0;points=[[0,0.5],[1,0.5]];portConstraint=eastwest;" vertex="1" parent="255">
                    <mxGeometry y="52" width="120" height="26" as="geometry"/>
                </mxCell>
                <mxCell id="258" value="Credenziali" style="swimlane;fontStyle=1;align=center;verticalAlign=top;childLayout=stackLayout;horizontal=1;startSize=26;horizontalStack=0;resizeParent=1;resizeParentMax=0;resizeLast=0;collapsible=1;marginBottom=0;" vertex="1" parent="1">
                    <mxGeometry x="460" y="120" width="120" height="78" as="geometry"/>
                </mxCell>
                <mxCell id="259" value="+ email: string" style="text;strokeColor=none;fillColor=none;align=left;verticalAlign=top;spacingLeft=4;spacingRight=4;overflow=hidden;rotatable=0;points=[[0,0.5],[1,0.5]];portConstraint=eastwest;" vertex="1" parent="258">
                    <mxGeometry y="26" width="120" height="26" as="geometry"/>
                </mxCell>
                <mxCell id="260" value="+ password: string" style="text;strokeColor=none;fillColor=none;align=left;verticalAlign=top;spacingLeft=4;spacingRight=4;overflow=hidden;rotatable=0;points=[[0,0.5],[1,0.5]];portConstraint=eastwest;" vertex="1" parent="258">
                    <mxGeometry y="52" width="120" height="26" as="geometry"/>
                </mxCell>
                <mxCell id="261" value="identifica" style="endArrow=none;html=1;edgeStyle=orthogonalEdgeStyle;" edge="1" parent="1" target="258" source="255">
                    <mxGeometry relative="1" as="geometry">
                        <mxPoint x="540" y="58" as="sourcePoint"/>
                        <mxPoint x="670" y="140" as="targetPoint"/>
                    </mxGeometry>
                </mxCell>
                <mxCell id="262" value="1" style="edgeLabel;resizable=0;html=1;align=left;verticalAlign=bottom;" connectable="0" vertex="1" parent="261">
                    <mxGeometry x="-1" relative="1" as="geometry">
                        <mxPoint x="1" as="offset"/>
                    </mxGeometry>
                </mxCell>
                <mxCell id="263" value="1" style="edgeLabel;resizable=0;html=1;align=right;verticalAlign=bottom;" connectable="0" vertex="1" parent="261">
                    <mxGeometry x="1" relative="1" as="geometry"/>
                </mxCell>
                <mxCell id="266" value="monitora" style="edgeStyle=none;html=1;endArrow=none;endFill=0;" edge="1" parent="1" source="264" target="251">
                    <mxGeometry x="0.4825" y="3" relative="1" as="geometry">
                        <mxPoint as="offset"/>
                    </mxGeometry>
                </mxCell>
                <mxCell id="267" value="aggiorna" style="edgeStyle=none;html=1;endArrow=none;endFill=0;" edge="1" parent="1" source="264" target="247">
                    <mxGeometry relative="1" as="geometry"/>
                </mxCell>
                <mxCell id="264" value="Amministratore" style="swimlane;fontStyle=1;align=center;verticalAlign=top;childLayout=stackLayout;horizontal=1;startSize=26;horizontalStack=0;resizeParent=1;resizeParentMax=0;resizeLast=0;collapsible=1;marginBottom=0;fillColor=#d5e8d4;strokeColor=#82b366;" vertex="1" parent="1">
                    <mxGeometry x="240" y="60" width="160" height="30" as="geometry">
                        <mxRectangle x="330" y="220" width="150" height="30" as="alternateBounds"/>
                    </mxGeometry>
                </mxCell>
                <mxCell id="265" value="1" style="endArrow=block;dashed=1;endFill=0;endSize=12;html=1;" edge="1" parent="1">
                    <mxGeometry x="-0.5238" y="-10" width="160" relative="1" as="geometry">
                        <mxPoint x="320" y="89" as="sourcePoint"/>
                        <mxPoint x="320" y="119" as="targetPoint"/>
                        <mxPoint as="offset"/>
                    </mxGeometry>
                </mxCell>
                <mxCell id="269" value="UtentiNonAdmin" style="swimlane;fontStyle=1;align=center;verticalAlign=top;childLayout=stackLayout;horizontal=1;startSize=26;horizontalStack=0;resizeParent=1;resizeParentMax=0;resizeLast=0;collapsible=1;marginBottom=0;fillColor=#d5e8d4;strokeColor=#82b366;" vertex="1" parent="1">
                    <mxGeometry x="255" y="240" width="130" height="52" as="geometry">
                        <mxRectangle x="160" y="240" width="150" height="30" as="alternateBounds"/>
                    </mxGeometry>
                </mxCell>
                <mxCell id="270" value="+ premium: boolean" style="text;strokeColor=none;fillColor=none;align=left;verticalAlign=top;spacingLeft=4;spacingRight=4;overflow=hidden;rotatable=0;points=[[0,0.5],[1,0.5]];portConstraint=eastwest;" vertex="1" parent="269">
                    <mxGeometry y="26" width="130" height="26" as="geometry"/>
                </mxCell>
                <mxCell id="271" value="" style="endArrow=block;dashed=1;endFill=0;endSize=12;html=1;" edge="1" parent="1" source="269" target="255">
                    <mxGeometry width="160" relative="1" as="geometry">
                        <mxPoint x="327.16999999999996" y="-30" as="sourcePoint"/>
                        <mxPoint x="317.16999999999996" y="120" as="targetPoint"/>
                    </mxGeometry>
                </mxCell>
                <mxCell id="272" value="0..*" style="edgeLabel;html=1;align=center;verticalAlign=middle;resizable=0;points=[];" vertex="1" connectable="0" parent="271">
                    <mxGeometry x="-0.3714" y="2" relative="1" as="geometry">
                        <mxPoint x="13" y="3" as="offset"/>
                    </mxGeometry>
                </mxCell>
                <mxCell id="273" value="Utenti premium" style="swimlane;fontStyle=1;align=center;verticalAlign=top;childLayout=stackLayout;horizontal=1;startSize=26;horizontalStack=0;resizeParent=1;resizeParentMax=0;resizeLast=0;collapsible=1;marginBottom=0;fillColor=#d5e8d4;strokeColor=#82b366;" vertex="1" parent="1">
                    <mxGeometry x="255" y="330" width="130" height="30" as="geometry">
                        <mxRectangle x="780" y="500" width="150" height="30" as="alternateBounds"/>
                    </mxGeometry>
                </mxCell>
                <mxCell id="274" value="" style="endArrow=block;dashed=1;endFill=0;endSize=12;html=1;" edge="1" parent="1" source="273" target="269">
                    <mxGeometry width="160" relative="1" as="geometry">
                        <mxPoint x="568.5" y="41.500000000000114" as="sourcePoint"/>
                        <mxPoint x="568.5" y="94" as="targetPoint"/>
                    </mxGeometry>
                </mxCell>
                <mxCell id="275" value="0..*" style="edgeLabel;html=1;align=center;verticalAlign=middle;resizable=0;points=[];" vertex="1" connectable="0" parent="274">
                    <mxGeometry x="-0.4649" y="-2" relative="1" as="geometry">
                        <mxPoint x="9" y="1" as="offset"/>
                    </mxGeometry>
                </mxCell>
                <mxCell id="276" value="Veicoli" style="swimlane;fontStyle=1;align=center;verticalAlign=top;childLayout=stackLayout;horizontal=1;startSize=26;horizontalStack=0;resizeParent=1;resizeParentMax=0;resizeLast=0;collapsible=1;marginBottom=0;fillColor=#dae8fc;strokeColor=#6c8ebf;" vertex="1" parent="1">
                    <mxGeometry x="75.16999999999996" y="281" width="89.17" height="52" as="geometry">
                        <mxRectangle x="330" y="220" width="150" height="30" as="alternateBounds"/>
                    </mxGeometry>
                </mxCell>
                <mxCell id="277" value="+ targa: string" style="text;strokeColor=none;fillColor=none;align=left;verticalAlign=top;spacingLeft=4;spacingRight=4;overflow=hidden;rotatable=0;points=[[0,0.5],[1,0.5]];portConstraint=eastwest;" vertex="1" parent="276">
                    <mxGeometry y="26" width="89.17" height="26" as="geometry"/>
                </mxCell>
                <mxCell id="280" value="VeicoliElettrici" style="swimlane;fontStyle=1;align=center;verticalAlign=top;childLayout=stackLayout;horizontal=1;startSize=26;horizontalStack=0;resizeParent=1;resizeParentMax=0;resizeLast=0;collapsible=1;marginBottom=0;fillColor=#dae8fc;strokeColor=#6c8ebf;" vertex="1" parent="1">
                    <mxGeometry x="60.16999999999996" y="371" width="119.17" height="52" as="geometry">
                        <mxRectangle x="330" y="220" width="150" height="30" as="alternateBounds"/>
                    </mxGeometry>
                </mxCell>
                <mxCell id="281" value="+ capacità: int" style="text;strokeColor=none;fillColor=none;align=left;verticalAlign=top;spacingLeft=4;spacingRight=4;overflow=hidden;rotatable=0;points=[[0,0.5],[1,0.5]];portConstraint=eastwest;" vertex="1" parent="280">
                    <mxGeometry y="26" width="119.17" height="26" as="geometry"/>
                </mxCell>
                <mxCell id="282" value="0..*" style="endArrow=block;dashed=1;endFill=0;endSize=12;html=1;" edge="1" parent="1" source="280" target="276">
                    <mxGeometry x="-0.4737" y="-19" width="160" relative="1" as="geometry">
                        <mxPoint x="115.75499999999988" y="361" as="sourcePoint"/>
                        <mxPoint x="115.75499999999988" y="330" as="targetPoint"/>
                        <mxPoint as="offset"/>
                    </mxGeometry>
                </mxCell>
                <mxCell id="283" value="possiede" style="endArrow=none;html=1;edgeStyle=orthogonalEdgeStyle;" edge="1" parent="1" source="276" target="269">
                    <mxGeometry x="0.0011" y="6" relative="1" as="geometry">
                        <mxPoint x="200" y="-114.5" as="sourcePoint"/>
                        <mxPoint x="239" y="-114" as="targetPoint"/>
                        <Array as="points">
                            <mxPoint x="210" y="266"/>
                            <mxPoint x="210" y="266"/>
                        </Array>
                        <mxPoint as="offset"/>
                    </mxGeometry>
                </mxCell>
                <mxCell id="284" value="1" style="edgeLabel;resizable=0;html=1;align=left;verticalAlign=bottom;" connectable="0" vertex="1" parent="283">
                    <mxGeometry x="-1" relative="1" as="geometry">
                        <mxPoint x="1" as="offset"/>
                    </mxGeometry>
                </mxCell>
                <mxCell id="285" value="0..*" style="edgeLabel;resizable=0;html=1;align=right;verticalAlign=bottom;" connectable="0" vertex="1" parent="283">
                    <mxGeometry x="1" relative="1" as="geometry">
                        <mxPoint x="-1" as="offset"/>
                    </mxGeometry>
                </mxCell>
                <mxCell id="287" value="Sosta" style="swimlane;fontStyle=1;align=center;verticalAlign=top;childLayout=stackLayout;horizontal=1;startSize=26;horizontalStack=0;resizeParent=1;resizeParentMax=0;resizeLast=0;collapsible=1;marginBottom=0;fillColor=#f5f5f5;strokeColor=#666666;fontColor=#333333;" vertex="1" parent="1">
                    <mxGeometry x="620" y="227" width="160" height="78" as="geometry">
                        <mxRectangle x="1190" y="890" width="150" height="30" as="alternateBounds"/>
                    </mxGeometry>
                </mxCell>
                <mxCell id="288" value="+ orario entrata: timedate" style="text;strokeColor=none;fillColor=none;align=left;verticalAlign=top;spacingLeft=4;spacingRight=4;overflow=hidden;rotatable=0;points=[[0,0.5],[1,0.5]];portConstraint=eastwest;" vertex="1" parent="287">
                    <mxGeometry y="26" width="160" height="26" as="geometry"/>
                </mxCell>
                <mxCell id="289" value="+ orario uscita: timedate" style="text;strokeColor=none;fillColor=none;align=left;verticalAlign=top;spacingLeft=4;spacingRight=4;overflow=hidden;rotatable=0;points=[[0,0.5],[1,0.5]];portConstraint=eastwest;" vertex="1" parent="287">
                    <mxGeometry y="52" width="160" height="26" as="geometry"/>
                </mxCell>
                <mxCell id="291" value="Ricarica" style="swimlane;fontStyle=1;align=center;verticalAlign=top;childLayout=stackLayout;horizontal=1;startSize=26;horizontalStack=0;resizeParent=1;resizeParentMax=0;resizeLast=0;collapsible=1;marginBottom=0;fillColor=#f5f5f5;strokeColor=#666666;fontColor=#333333;" vertex="1" parent="1">
                    <mxGeometry x="580" y="320" width="200" height="78" as="geometry">
                        <mxRectangle x="950" y="890" width="150" height="30" as="alternateBounds"/>
                    </mxGeometry>
                </mxCell>
                <mxCell id="292" value="+ percentuale desiderata: int" style="text;strokeColor=none;fillColor=none;align=left;verticalAlign=top;spacingLeft=4;spacingRight=4;overflow=hidden;rotatable=0;points=[[0,0.5],[1,0.5]];portConstraint=eastwest;" vertex="1" parent="291">
                    <mxGeometry y="26" width="200" height="26" as="geometry"/>
                </mxCell>
                <mxCell id="293" value="+ Kw iniziali: int" style="text;strokeColor=none;fillColor=none;align=left;verticalAlign=top;spacingLeft=4;spacingRight=4;overflow=hidden;rotatable=0;points=[[0,0.5],[1,0.5]];portConstraint=eastwest;" vertex="1" parent="291">
                    <mxGeometry y="52" width="200" height="26" as="geometry"/>
                </mxCell>
                <mxCell id="294" value="" style="endArrow=diamondThin;endFill=1;endSize=24;html=1;dashed=1;" edge="1" parent="1" source="295" target="269">
                    <mxGeometry width="160" relative="1" as="geometry">
                        <mxPoint x="1220" y="510" as="sourcePoint"/>
                        <mxPoint x="1010" y="635.5" as="targetPoint"/>
                        <Array as="points"/>
                    </mxGeometry>
                </mxCell>
                <mxCell id="295" value="Pagamenti" style="swimlane;fontStyle=1;align=center;verticalAlign=top;childLayout=stackLayout;horizontal=1;startSize=26;horizontalStack=0;resizeParent=1;resizeParentMax=0;resizeLast=0;collapsible=1;marginBottom=0;fillColor=#f5f5f5;strokeColor=#666666;fontColor=#333333;" vertex="1" parent="1">
                    <mxGeometry x="460" y="251" width="100" height="30" as="geometry">
                        <mxRectangle x="1000" y="811" width="150" height="30" as="alternateBounds"/>
                    </mxGeometry>
                </mxCell>
                <mxCell id="301" value="" style="endArrow=block;dashed=1;endFill=0;endSize=12;html=1;exitX=0;exitY=0.25;exitDx=0;exitDy=0;" edge="1" parent="1" source="291" target="295">
                    <mxGeometry width="160" relative="1" as="geometry">
                        <mxPoint x="260" y="310" as="sourcePoint"/>
                        <mxPoint x="260" y="272.0000000000002" as="targetPoint"/>
                        <Array as="points">
                            <mxPoint x="510" y="340"/>
                        </Array>
                    </mxGeometry>
                </mxCell>
                <mxCell id="302" value="0..*" style="edgeLabel;html=1;align=center;verticalAlign=middle;resizable=0;points=[];" vertex="1" connectable="0" parent="301">
                    <mxGeometry x="-0.4649" y="-2" relative="1" as="geometry">
                        <mxPoint x="13" y="-9" as="offset"/>
                    </mxGeometry>
                </mxCell>
                <mxCell id="307" value="" style="endArrow=block;dashed=1;endFill=0;endSize=12;html=1;" edge="1" parent="1" source="287" target="295">
                    <mxGeometry width="160" relative="1" as="geometry">
                        <mxPoint x="630" y="308" as="sourcePoint"/>
                        <mxPoint x="630" y="270.0000000000002" as="targetPoint"/>
                    </mxGeometry>
                </mxCell>
                <mxCell id="308" value="0..*" style="edgeLabel;html=1;align=center;verticalAlign=middle;resizable=0;points=[];" vertex="1" connectable="0" parent="307">
                    <mxGeometry x="-0.4649" y="-2" relative="1" as="geometry">
                        <mxPoint x="5" y="-8" as="offset"/>
                    </mxGeometry>
                </mxCell>
                <mxCell id="309" value="necessita" style="endArrow=none;html=1;edgeStyle=orthogonalEdgeStyle;" edge="1" parent="1" source="280" target="291">
                    <mxGeometry relative="1" as="geometry">
                        <mxPoint x="175.17000000000007" y="276.0000000000002" as="sourcePoint"/>
                        <mxPoint x="265" y="276.0000000000002" as="targetPoint"/>
                        <Array as="points">
                            <mxPoint x="121" y="500"/>
                            <mxPoint x="560" y="500"/>
                            <mxPoint x="560" y="359"/>
                        </Array>
                    </mxGeometry>
                </mxCell>
                <mxCell id="312" value="osserva" style="edgeStyle=none;html=1;endArrow=none;endFill=0;" edge="1" parent="1" source="264" target="295">
                    <mxGeometry relative="1" as="geometry">
                        <mxPoint x="276.0743801652893" y="100" as="sourcePoint"/>
                        <mxPoint x="-55" y="192.0919540229886" as="targetPoint"/>
                        <Array as="points">
                            <mxPoint x="620" y="75"/>
                            <mxPoint x="620" y="200"/>
                        </Array>
                    </mxGeometry>
                </mxCell>
                <mxCell id="313" value="Prenotazione" style="swimlane;fontStyle=1;align=center;verticalAlign=top;childLayout=stackLayout;horizontal=1;startSize=26;horizontalStack=0;resizeParent=1;resizeParentMax=0;resizeLast=0;collapsible=1;marginBottom=0;fillColor=#f5f5f5;strokeColor=#666666;fontColor=#333333;" vertex="1" parent="1">
                    <mxGeometry x="240" y="400" width="160" height="78" as="geometry">
                        <mxRectangle x="330" y="220" width="150" height="30" as="alternateBounds"/>
                    </mxGeometry>
                </mxCell>
                <mxCell id="314" value="+ orario d'arrivo: timedate" style="text;strokeColor=none;fillColor=none;align=left;verticalAlign=top;spacingLeft=4;spacingRight=4;overflow=hidden;rotatable=0;points=[[0,0.5],[1,0.5]];portConstraint=eastwest;" vertex="1" parent="313">
                    <mxGeometry y="26" width="160" height="26" as="geometry"/>
                </mxCell>
                <mxCell id="315" value="+ durata sosta: time" style="text;strokeColor=none;fillColor=none;align=left;verticalAlign=top;spacingLeft=4;spacingRight=4;overflow=hidden;rotatable=0;points=[[0,0.5],[1,0.5]];portConstraint=eastwest;" vertex="1" parent="313">
                    <mxGeometry y="52" width="160" height="26" as="geometry"/>
                </mxCell>
                <mxCell id="316" value="" style="endArrow=diamondThin;endFill=1;endSize=24;html=1;dashed=1;" edge="1" parent="1" source="313" target="273">
                    <mxGeometry width="160" relative="1" as="geometry">
                        <mxPoint x="470" y="276" as="sourcePoint"/>
                        <mxPoint x="395" y="276.0000000000002" as="targetPoint"/>
                        <Array as="points"/>
                    </mxGeometry>
                </mxCell>
                <mxCell id="317" value="0..*" style="edgeLabel;html=1;align=center;verticalAlign=middle;resizable=0;points=[];" vertex="1" connectable="0" parent="316">
                    <mxGeometry x="-0.6361" relative="1" as="geometry">
                        <mxPoint x="12" y="-1" as="offset"/>
                    </mxGeometry>
                </mxCell>
                <mxCell id="319" value="necessita" style="edgeStyle=none;html=1;endArrow=none;endFill=0;" edge="1" parent="1" source="313" target="251">
                    <mxGeometry x="0.3743" relative="1" as="geometry">
                        <mxPoint x="276.0743801652893" y="100" as="sourcePoint"/>
                        <mxPoint x="-55" y="192.0919540229886" as="targetPoint"/>
                        <Array as="points">
                            <mxPoint x="40" y="440"/>
                            <mxPoint x="40" y="200"/>
                        </Array>
                        <mxPoint as="offset"/>
                    </mxGeometry>
                </mxCell>
                <mxCell id="321" value="0..*" style="endArrow=diamondThin;endFill=1;endSize=24;html=1;dashed=1;" edge="1" parent="1" source="322" target="273">
                    <mxGeometry x="-0.8571" y="-10" width="160" relative="1" as="geometry">
                        <mxPoint x="1267.5" y="659" as="sourcePoint"/>
                        <mxPoint x="432.5" y="415.0000000000002" as="targetPoint"/>
                        <Array as="points">
                            <mxPoint x="480" y="345"/>
                        </Array>
                        <mxPoint as="offset"/>
                    </mxGeometry>
                </mxCell>
                <mxCell id="322" value="Multa" style="swimlane;fontStyle=1;align=center;verticalAlign=top;childLayout=stackLayout;horizontal=1;startSize=26;horizontalStack=0;resizeParent=1;resizeParentMax=0;resizeLast=0;collapsible=1;marginBottom=0;fillColor=#f5f5f5;strokeColor=#666666;fontColor=#333333;" vertex="1" collapsed="1" parent="1">
                    <mxGeometry x="440" y="382" width="80" height="30" as="geometry">
                        <mxRectangle x="420" y="360" width="120" height="52" as="alternateBounds"/>
                    </mxGeometry>
                </mxCell>
                <mxCell id="325" value="+ ammenda: float" style="text;strokeColor=none;fillColor=none;align=left;verticalAlign=top;spacingLeft=4;spacingRight=4;overflow=hidden;rotatable=0;points=[[0,0.5],[1,0.5]];portConstraint=eastwest;" vertex="1" parent="322">
                    <mxGeometry y="26" width="120" height="26" as="geometry"/>
                </mxCell>
                <mxCell id="323" value="necessita" style="edgeStyle=none;html=1;endArrow=none;endFill=0;" edge="1" parent="1" source="322" target="313">
                    <mxGeometry x="-0.8519" relative="1" as="geometry">
                        <mxPoint x="250" y="449.2857142857142" as="sourcePoint"/>
                        <mxPoint x="65.25" y="210.21734483004366" as="targetPoint"/>
                        <Array as="points">
                            <mxPoint x="480" y="440"/>
                        </Array>
                        <mxPoint as="offset"/>
                    </mxGeometry>
                </mxCell>
            </root>
        </mxGraphModel>
    </diagram>
</mxfile>
